PathFileType	4	(X/Y/Z)	3_coords_data.trc
DataRate	CameraRate	NumFrames	NumMarkers	Units	OrigDataRate	OrigDataStartFrame	OrigNumFrames
30.0	30.0	5	21	m	30.0	11	65
Frame#	Time	THUMB_TIP	THUMB_IP	THUMB_MCP	THUMB_CMC	INDEX_TIP	INDEX_DIP	INDEX_PIP	INDEX_MCP	MIDDLE_TIP	MIDDLE_DIP	MIDDLE_PIP	MIDDLE_MCP	RING_TIP	RING_DIP	RING_PIP	RING_MCP	PINKY_TIP	PINKY_DIP	PINKY_PIP	PINKY_MCP	WRIST
X1	Y1	Z1	X2	Y2	Z2	X3	Y3	Z3	X4	Y4	Z4	X5	Y5	Z5	X6	Y6	Z6	X7	Y7	Z7	X8	Y8	Z8	X9	Y9	Z9	X10	Y10	Z10	X11	Y11	Z11	X12	Y12	Z12	X13	Y13	Z13	X14	Y14	Z14	X15	Y15	Z15	X16	Y16	Z16	X17	Y17	Z17	X18	Y18	Z18	X19	Y19	Z19	X20	Y20	Z20	X21	Y21	Z21
10	0.3333333333333333	-0.05780210113525391	-0.014315500259399414	0.9521179809570313	-0.05715599822998047	-0.03748989868164063	0.9605700073242187	-0.07453150177001953	-0.041403099060058596	0.9855499877929688	-0.09025050354003906	-0.020760499954223632	1.0075900268554687	-0.08895610046386719	-0.03734400177001953	0.97543701171875	-0.07283090209960938	-0.03396699905395508	0.9627529907226563	-0.07585240173339844	-0.034582599639892575	0.9385490112304687	-0.11178900146484375	-0.041853599548339844	0.9536500244140625	-0.0785916976928711	-0.0195093994140625	0.9806619873046875	-0.07333380126953125	-0.01568850040435791	0.9760670166015625	-0.07332599639892579	-0.011001999855041505	0.9491119995117188	-0.11418099975585938	-0.01995479965209961	0.9492579956054688	-0.08527130126953125	-0.006420330047607422	0.9899990234375	-0.0787489013671875	-0.002138890027999878	0.9874860229492187	-0.07433049774169923	0.0065525898933410645	0.96493798828125	-0.11400800323486328	0.00028446599841117803	0.9556110229492187	-0.09405020141601562	0.006294479846954346	1.00175	-0.08080590057373047	0.009952289581298828	0.9964920043945312	-0.07848020172119141	0.018738500595092772	0.9800020141601562	-0.10804599761962891	0.018660699844360352	0.9662839965820312	-0.11825900268554687	-0.004944519996643066	1.0289100341796875
11	0.36666666666666664	-0.057766300201416015	-0.014364500045776368	0.9523709716796875	-0.056859798431396484	-0.03771200180053711	0.9605659790039063	-0.07435430145263672	-0.041355201721191406	0.985822021484375	-0.09009970092773438	-0.020832300186157227	1.0076099853515625	-0.08883470153808594	-0.037257598876953124	0.9756300048828125	-0.0726395034790039	-0.03400569915771484	0.963052001953125	-0.07565859985351563	-0.03462689971923828	0.9387520141601563	-0.11158300018310546	-0.041905200958251954	0.9539010009765625	-0.07842639923095703	-0.01954859924316406	0.9807940063476562	-0.07327670288085937	-0.015783599853515625	0.976135986328125	-0.07310369873046875	-0.011040900230407715	0.9492540283203125	-0.11393099975585938	-0.020064899444580078	0.9494169921875	-0.08507340240478516	-0.0065639901161193845	0.9904119873046875	-0.07861599731445312	-0.002216370105743408	0.9876810302734375	-0.07419450378417969	0.006506330013275147	0.9650490112304687	-0.11372699737548828	0.000187695994973182	0.955552001953125	-0.09406020355224609	0.006252930164337158	1.001969970703125	-0.08067960357666015	0.00987421989440918	0.9966400146484375	-0.07820010375976562	0.018674999237060546	0.9802030029296875	-0.10785199737548828	0.01860740089416504	0.9664420166015625	-0.11862799835205078	-0.004629799842834473	1.0293900146484376
12	0.4	-0.05742990112304688	-0.014451499938964843	0.9524829711914062	-0.05677220153808594	-0.03765679931640625	0.9607639770507812	-0.07419090270996094	-0.04137540054321289	0.9859019775390625	-0.08990879821777344	-0.02084320068359375	1.0079199829101562	-0.08888809967041016	-0.037159801483154294	0.9758380126953125	-0.07248639678955078	-0.0340348014831543	0.9632210083007813	-0.07542279815673827	-0.034655200958251954	0.9388159790039062	-0.11141699981689453	-0.041919498443603515	0.953969970703125	-0.07825370025634766	-0.019547399520874024	0.9809970092773438	-0.07299289703369141	-0.015653300285339355	0.9764329833984375	-0.07291239929199218	-0.011057600021362305	0.949416015625	-0.11373400115966797	-0.02003809928894043	0.9495159912109375	-0.08510359954833985	-0.006565810203552246	0.9902830200195313	-0.0783949966430664	-0.0021695499420166012	0.98785302734375	-0.07402189636230469	0.006531449794769287	0.9652459716796875	-0.11358999633789063	0.000294425010681152	0.9558770141601562	-0.09361489868164062	0.006514910221099853	1.0017999877929689	-0.0804197998046875	0.009931940078735352	0.996916015625	-0.07802670288085937	0.018671300888061522	0.9803560180664063	-0.10764299774169922	0.01863279914855957	0.9665969848632813	-0.11801999664306641	-0.004935919761657715	1.029300048828125
13	0.43333333333333335	-0.05745309829711914	-0.014395299911499024	0.9526199951171875	-0.05675949859619141	-0.03745880126953125	0.9608839721679687	-0.0742074966430664	-0.04135409927368164	0.9858489990234375	-0.08993340301513672	-0.020777000427246093	1.0080399780273437	-0.0884000015258789	-0.037073001861572266	0.9763870239257812	-0.07232060241699219	-0.03388240051269531	0.9629990234375	-0.075385498046875	-0.03461420059204102	0.938822998046875	-0.11123200225830078	-0.041831199645996096	0.9541129760742187	-0.078189697265625	-0.01948929977416992	0.9810689697265625	-0.07289839935302735	-0.01552810001373291	0.9764509887695313	-0.07291210174560547	-0.011103699684143067	0.9495750122070312	-0.11362599945068359	-0.019946399688720702	0.9496329956054688	-0.08517559814453125	-0.006433909893035889	0.990697021484375	-0.07833540344238281	-0.002130369901657104	0.9878889770507813	-0.07398580169677735	0.006612510204315186	0.96522900390625	-0.11358899688720703	0.00035291901230812	0.9560369873046874	-0.09376689910888672	0.0064135599136352535	1.0020499877929687	-0.08049639892578125	0.009925780296325683	0.9967899780273437	-0.07799240112304688	0.018721200942993163	0.980468994140625	-0.10756900024414062	0.018699600219726564	0.966655029296875	-0.11795099639892578	-0.004860459804534912	1.0296300048828124
14	0.4666666666666667	-0.05725329971313477	-0.014228400230407714	0.95268701171875	-0.05660089874267578	-0.0374922981262207	0.9609609985351563	-0.0741053009033203	-0.04128739929199219	0.985926025390625	-0.08979160308837891	-0.02067840003967285	1.007969970703125	-0.08855059814453126	-0.03724810028076172	0.9755419921875	-0.07226509857177735	-0.03381129837036133	0.96306298828125	-0.07526480102539063	-0.03439179992675781	0.9389559936523437	-0.11117299652099609	-0.041670799255371094	0.9542100219726563	-0.0783904037475586	-0.019296100616455078	0.9813410034179687	-0.07281900024414062	-0.015530799865722656	0.976426025390625	-0.07270919799804687	-0.010878299713134766	0.9495670166015625	-0.11355799865722656	-0.019794200897216795	0.9497319946289062	-0.0847114028930664	-0.006492509841918946	0.9900079956054687	-0.07824749755859375	-0.002043370008468628	0.9879959716796874	-0.07380439758300782	0.006704579830169677	0.96543798828125	-0.11352899932861328	0.00046539101004600505	0.9561729736328125	-0.09341439819335938	0.006676360130310059	1.0017999877929689	-0.08042099761962891	0.009978659629821777	0.9969719848632812	-0.0779646987915039	0.01891440010070801	0.9805780029296876	-0.10755699920654296	0.018840499877929687	0.9668380126953126	-0.11796099853515625	-0.004852970123291015	1.029719970703125
